<svg width="247" height="121" viewBox="0 0 247 121" fill="none" xmlns="http://www.w3.org/2000/svg">
<path d="M52.944 59.448C52.944 59.384 53.04 58.744 53.232 57.528C45.104 60.536 35.376 64.696 24.048 70.008C23.664 71.032 23.472 71.576 23.472 71.64C20.528 84.696 18.448 94.84 17.232 102.072C17.168 102.264 17.104 102.584 17.04 103.032C16.976 103.544 16.912 103.896 16.848 104.088C16.784 104.344 16.72 104.664 16.656 105.048C16.656 105.496 16.624 105.848 16.56 106.104C16.56 106.424 16.56 106.744 16.56 107.064C16.56 107.448 16.592 107.8 16.656 108.12C16.72 108.504 16.816 108.856 16.944 109.176C16.496 109.88 15.952 110.04 15.312 109.656C13.904 108.888 13.072 107.832 12.816 106.488C12.496 105.016 12.464 103.096 12.72 100.728C13.296 94.712 14.48 86.872 16.272 77.208C16.272 77.144 16.432 76.056 16.752 73.944C16.304 73.944 16.08 73.944 16.08 73.944C12.176 75.864 8.592 77.944 5.328 80.184C4.176 80.952 3.408 81.816 3.024 82.776C2.192 82.968 1.424 82.552 0.719999 81.528C0.143999 80.824 0.0479989 80.056 0.431999 79.224C1.008 78.136 1.552 77.24 2.064 76.536C3.664 74.488 5.392 72.856 7.248 71.64C8.72 70.616 11.504 68.792 15.6 66.168C15.664 66.104 16.656 65.528 18.576 64.44C18.704 63.8 18.864 62.968 19.056 61.944C19.312 60.856 19.536 59.864 19.728 58.968C19.92 58.072 20.08 57.24 20.208 56.472C23.152 42.52 27.088 27.8 32.016 12.312C32.4 11.032 32.912 9.656 33.552 8.184C34 7.032 34.512 6.264 35.088 5.88C36.176 5.688 37.008 6.07199 37.584 7.03199C37.2 10.296 36.976 12.024 36.912 12.216C36.08 18.296 34.736 25.176 32.88 32.856C32.624 33.944 30.544 42.68 26.64 59.064C26.576 59.128 26.48 59.416 26.352 59.928C26.48 60.056 26.608 60.152 26.736 60.216C26.928 60.216 27.056 60.216 27.12 60.216C27.184 60.216 27.28 60.184 27.408 60.12C27.6 59.992 27.696 59.928 27.696 59.928C35.12 56.664 42.672 53.784 50.352 51.288C50.48 51.288 52.112 50.776 55.248 49.752C55.696 48.408 55.952 47.704 56.016 47.64C60.24 32.856 65.264 19 71.088 6.07199C71.152 5.88 71.6 4.632 72.432 2.328C72.432 2.264 72.624 1.752 73.008 0.791999C74.288 0.535999 75.44 0.855998 76.464 1.75199C78.256 3.22399 78.96 4.91999 78.576 6.84C78.064 9.4 77.52 11.544 76.944 13.272C76.176 15.704 75.024 19.16 73.488 23.64C72.016 28.056 71.056 30.872 70.608 32.088C70.032 33.944 68.624 38.296 66.384 45.144C66.384 45.144 66.224 45.688 65.904 46.776C66.352 47.032 67.184 47.064 68.4 46.872C70.512 46.552 72.624 46.968 74.736 48.12C75.632 48.568 76.304 49.144 76.752 49.848C76.752 49.912 76.816 50.264 76.944 50.904C76.496 51.032 75.984 51.128 75.408 51.192C74.832 51.192 74.256 51.192 73.68 51.192C73.104 51.192 72.624 51.256 72.24 51.384C71.856 51.512 71.408 51.64 70.896 51.768C70.384 51.896 69.872 52.024 69.36 52.152C68.848 52.28 68.4 52.376 68.016 52.44C67.76 52.504 66.256 52.984 63.504 53.88C62.928 55.544 62.608 56.408 62.544 56.472C58.256 69.848 54.896 82.52 52.464 94.488C51.44 99.736 50.768 104.984 50.448 110.232C50.448 110.552 50.48 111.96 50.544 114.456C50.608 114.712 50.64 115.352 50.64 116.376C50.704 117.464 50.768 118.264 50.832 118.776C50.832 119.608 50.544 120.216 49.968 120.6C49.392 120.344 49.072 120.184 49.008 120.12C47.024 118.392 45.808 116.056 45.36 113.112C44.848 109.784 44.752 105.88 45.072 101.4C45.648 93.912 47.568 82.776 50.832 67.992C51.024 67.16 51.216 66.264 51.408 65.304C51.664 64.28 51.92 63.224 52.176 62.136C52.496 60.984 52.752 60.088 52.944 59.448ZM97.2953 64.248C97.6793 64.504 98.0633 64.984 98.4473 65.688C97.8713 66.2 97.1353 66.296 96.2393 65.976C95.5353 65.72 94.6393 65.336 93.5513 64.824C93.3593 64.696 92.4633 64.152 90.8633 63.192C90.0953 63.448 89.1673 64.184 88.0793 65.4C86.1593 67.576 83.8553 71 81.1673 75.672C79.8233 78.04 78.5113 80.216 77.2313 82.2C77.2313 82.328 76.6873 83.096 75.5993 84.504H72.6233C70.8953 83.48 69.9032 82.68 69.6472 82.104C69.3912 81.464 69.4552 80.216 69.8392 78.36C70.1592 77.08 70.8633 74.488 71.9513 70.584C73.2313 65.912 74.2873 62.136 75.1193 59.256C75.5033 57.848 75.9193 56.696 76.3672 55.8C76.9433 54.584 77.9353 54.168 79.3433 54.552C80.8153 54.872 81.7113 55.608 82.0312 56.76C81.8393 57.656 81.5193 58.936 81.0713 60.6C80.6233 62.264 80.3033 63.48 80.1113 64.248C80.1753 64.248 80.2393 64.28 80.3033 64.344C80.3673 64.408 80.3993 64.44 80.3993 64.44C80.5273 64.376 80.6553 64.28 80.7833 64.152C80.9113 63.96 81.0393 63.8 81.1673 63.672C81.2953 63.544 81.3913 63.416 81.4553 63.288C82.7353 61.944 83.4073 61.24 83.4713 61.176C84.6873 59.96 85.9033 59.288 87.1193 59.16C88.3353 58.968 89.7113 59.288 91.2473 60.12C91.2473 60.12 91.8553 60.536 93.0713 61.368C95.1833 62.84 96.5913 63.8 97.2953 64.248ZM113.034 80.76C113.994 80.248 114.794 80.024 115.434 80.088C115.498 80.792 115.53 81.144 115.53 81.144C115.53 81.4 115.434 81.72 115.242 82.104C114.41 83.704 112.938 85.176 110.826 86.52C108.714 87.8 106.57 88.248 104.394 87.864C100.81 87.288 98.378 85.24 97.098 81.72C96.458 79.864 96.33 77.752 96.714 75.384C97.162 72.696 98.218 69.208 99.882 64.92C101.61 60.504 103.338 56.92 105.066 54.168C105.642 53.336 106.026 52.792 106.218 52.536C106.73 51.896 107.37 51.512 108.138 51.384C108.906 51.256 109.642 51.416 110.346 51.864C110.922 52.248 111.274 52.728 111.402 53.304C111.594 53.816 111.498 54.328 111.114 54.84C110.858 55.224 110.602 55.672 110.346 56.184C110.154 56.632 109.994 57.048 109.866 57.432C109.738 57.752 109.578 58.2 109.386 58.776C109.194 59.288 109.034 59.704 108.906 60.024C106.858 65.464 105.194 70.744 103.914 75.864C103.21 78.424 102.922 80.6 103.05 82.392C103.114 83.672 103.466 84.536 104.106 84.984C105.322 85.048 106.826 84.504 108.618 83.352C110.474 82.2 111.946 81.336 113.034 80.76ZM121.866 32.856C122.442 32.984 122.826 33.272 123.018 33.72C123.274 34.168 123.242 34.616 122.922 35.064C122.73 35.32 122.346 35.704 121.77 36.216C121.194 36.664 120.394 37.304 119.37 38.136C118.41 38.968 117.706 39.576 117.258 39.96C116.298 40.728 115.69 41.272 115.434 41.592C115.242 41.784 114.442 42.744 113.034 44.472C113.226 45.304 113.322 45.752 113.322 45.816C113.322 45.816 113.29 45.912 113.226 46.104C112.01 46.296 110.89 46.168 109.866 45.72C108.842 45.208 108.074 44.44 107.562 43.416C107.178 42.648 107.21 41.976 107.658 41.4C108.042 40.824 108.458 40.312 108.906 39.864C111.274 37.624 114.346 35.512 118.122 33.528C119.274 32.888 120.522 32.664 121.866 32.856ZM139.929 76.92C140.761 78.328 141.081 79.704 140.889 81.048C140.761 82.328 139.961 83.64 138.489 84.984C136.697 86.648 134.201 88.152 131.001 89.496C127.993 90.712 125.401 91.448 123.225 91.704C122.649 91.768 121.593 91.736 120.057 91.608C119.929 91.608 119.673 91.544 119.289 91.416C118.905 91.288 118.617 91.192 118.425 91.128C117.209 91.064 116.217 90.68 115.449 89.976C114.681 89.272 113.881 88.28 113.049 87C112.473 85.976 112.409 84.952 112.857 83.928C113.881 81.816 114.617 80.44 115.065 79.8C115.321 79.416 117.049 77.176 120.249 73.08C120.377 72.952 120.473 72.856 120.537 72.792C120.601 72.664 120.697 72.536 120.825 72.408C120.953 72.216 121.049 72.088 121.113 72.024C118.937 70.104 117.785 69.08 117.657 68.952C117.209 68.44 116.697 67.832 116.121 67.128C115.545 66.424 114.937 65.496 114.297 64.344C113.657 63.192 113.209 62.104 112.953 61.08C112.697 59.224 113.177 57.464 114.393 55.8C115.289 54.584 116.089 53.656 116.793 53.016C120.313 49.816 124.377 47.928 128.985 47.352C132.377 46.904 135.129 48.024 137.241 50.712C138.457 52.312 138.553 53.912 137.529 55.512C137.465 55.576 137.017 56.216 136.185 57.432C135.161 57.112 134.553 56.792 134.361 56.472C134.169 56.152 134.105 55.224 134.169 53.688C133.017 53.688 131.641 54.328 130.041 55.608C126.009 58.872 123.449 62.104 122.361 65.304C122.937 65.944 124.185 66.616 126.105 67.32C128.345 65.592 129.561 64.664 129.753 64.536C131.481 63.192 132.985 62.392 134.265 62.136C134.265 62.136 134.713 62.104 135.609 62.04C135.609 62.936 135.609 63.416 135.609 63.48C135.417 64.376 134.841 65.336 133.881 66.36C133.817 66.424 132.985 67.288 131.385 68.952C131.449 69.208 131.577 69.432 131.769 69.624C131.961 69.752 132.217 69.912 132.537 70.104C132.857 70.232 133.049 70.328 133.113 70.392C136.057 72.056 138.201 74.008 139.545 76.248C139.545 76.312 139.577 76.408 139.641 76.536C139.769 76.664 139.865 76.792 139.929 76.92ZM130.137 79.608C131.289 78.584 132.057 77.496 132.441 76.344C130.265 75.256 128.249 74.584 126.393 74.328C124.665 75.928 123.097 77.816 121.689 79.992C120.345 82.168 119.513 84.024 119.193 85.56C123.929 83.96 127.577 81.976 130.137 79.608ZM178.263 77.784C178.199 78.744 178.167 79.256 178.167 79.32C177.719 80.088 177.207 80.6 176.631 80.856C174.199 82.008 171.895 81.816 169.719 80.28C166.775 78.168 165.111 74.936 164.727 70.584C164.727 70.456 164.727 69.112 164.727 66.552C164.471 66.552 164.279 66.616 164.151 66.744C164.023 66.808 163.895 66.904 163.767 67.032C163.703 67.096 163.607 67.224 163.479 67.416C163.415 67.608 163.351 67.736 163.287 67.8C156.695 76.824 151.223 85.88 146.871 94.968C146.871 95.032 146.551 95.672 145.911 96.888C145.591 96.952 145.111 96.984 144.471 96.984C143.831 97.048 143.383 97.112 143.127 97.176C142.871 96.984 142.487 96.696 141.975 96.312C141.399 95.928 140.983 95.608 140.727 95.352C140.535 94.776 140.631 93.72 141.015 92.184C142.423 86.616 145.047 77.976 148.887 66.264C149.527 64.344 153.495 52.056 160.791 29.4C162.647 23.512 163.863 19.736 164.439 18.072C164.439 17.944 164.759 17.144 165.399 15.672C166.935 15.8 167.959 16.152 168.471 16.728C168.983 17.24 169.143 18.168 168.951 19.512C168.119 24.056 167.351 27.8 166.647 30.744C162.871 45.464 159.351 57.528 156.087 66.936C156.087 66.936 155.959 67.352 155.703 68.184C155.767 68.184 155.831 68.216 155.895 68.28C155.959 68.28 155.991 68.28 155.991 68.28C156.951 66.936 157.463 66.232 157.527 66.168C160.727 61.624 163.191 58.168 164.919 55.8C165.303 55.288 165.783 54.744 166.359 54.168C167.703 52.76 169.239 52.536 170.967 53.496C172.951 54.52 173.751 55.96 173.367 57.816C173.175 58.584 172.919 59.64 172.599 60.984C172.279 62.328 172.055 63.256 171.927 63.768C170.967 68.056 170.551 71.448 170.679 73.944C170.743 75.864 171.127 77.336 171.831 78.36C172.343 78.36 173.047 78.232 173.943 77.976C174.839 77.72 175.543 77.592 176.055 77.592C176.567 77.528 177.303 77.592 178.263 77.784ZM203.226 88.44C203.29 88.44 203.418 88.728 203.61 89.304C202.842 89.688 201.914 89.56 200.826 88.92C198.778 87.704 197.338 85.976 196.506 83.736C195.802 81.816 195.226 79.256 194.778 76.056C194.778 75.8 194.714 75.192 194.586 74.232C194.394 74.104 194.202 74.104 194.01 74.232C193.882 74.296 193.786 74.36 193.722 74.424C193.722 74.424 193.658 74.52 193.53 74.712C193.466 74.84 193.402 74.904 193.338 74.904C189.754 79.448 187.93 81.752 187.866 81.816C186.458 83.48 185.082 84.728 183.738 85.56C182.202 86.52 180.634 86.84 179.034 86.52C177.498 86.2 176.186 85.304 175.098 83.832C174.522 83.128 174.33 82.2 174.522 81.048C174.842 79.256 175.162 77.912 175.482 77.016C177.85 70.168 181.146 64.024 185.37 58.584C186.202 57.496 187.994 55.576 190.746 52.824C191.45 52.12 192.25 51.576 193.146 51.192C194.362 50.616 195.45 50.68 196.41 51.384C197.37 52.088 197.818 53.144 197.754 54.552C197.754 54.552 197.69 54.904 197.562 55.608C197.178 55.736 196.858 55.736 196.602 55.608C196.346 55.48 196.09 55.288 195.834 55.032C195.642 54.712 195.45 54.52 195.258 54.456C192.954 56.888 190.33 60.856 187.386 66.36C184.442 71.864 182.938 75.64 182.874 77.688C185.626 74.68 187.834 71.768 189.498 68.952C189.754 68.568 191.418 65.464 194.49 59.64C195.706 59.32 196.954 59.416 198.234 59.928C199.578 60.44 200.506 61.24 201.018 62.328C201.338 62.904 201.466 63.608 201.402 64.44C201.402 65.144 201.306 66.168 201.114 67.512C200.986 68.792 200.922 69.72 200.922 70.296C200.538 75.224 200.698 79.704 201.402 83.736C201.722 85.656 202.33 87.224 203.226 88.44ZM246.494 44.568C247.006 45.208 247.07 45.848 246.686 46.488C246.494 46.872 246.206 47.256 245.822 47.64C242.238 51.352 237.502 57.368 231.614 65.688C224.83 75.352 220.414 81.816 218.366 85.08C218.11 85.592 217.726 86.136 217.214 86.712C216.83 87.096 216.51 87.32 216.254 87.384C214.206 87.704 212.862 87.832 212.222 87.768C211.07 87.704 209.95 87.128 208.862 86.04C207.774 84.952 207.166 83.832 207.038 82.68C206.718 80.12 206.654 77.912 206.846 76.056C207.102 73.688 207.742 69.08 208.766 62.232C209.086 60.248 209.502 58.008 210.014 55.512C210.27 54.168 210.75 53.272 211.454 52.824C212.926 52.76 213.95 52.888 214.526 53.208C215.102 53.528 215.678 54.328 216.254 55.608C216.062 58.104 215.774 61.72 215.39 66.456C215.07 71.192 214.846 74.264 214.718 75.672C215.358 74.968 215.678 74.616 215.678 74.616C217.662 71.416 220.19 68.12 223.262 64.728C229.022 58.392 232.894 54.2 234.878 52.152C235.71 51.32 237.95 49.272 241.598 46.008C242.558 45.112 243.71 44.6 245.054 44.472C245.118 44.408 245.598 44.44 246.494 44.568Z" fill="white"/>
</svg>
