<svg width="30" height="30" viewBox="0 0 30 30" fill="none" xmlns="http://www.w3.org/2000/svg">
<path d="M15 0C6.717 0 0 6.717 0 15C0 23.283 6.717 30 15 30C23.283 30 30 23.283 30 15C30 6.717 23.283 0 15 0ZM23.9834 19.8431C23.8754 20.0949 23.3897 20.4527 21.6909 20.715C21.5517 20.7362 21.498 20.9173 21.4151 21.2965C21.3849 21.4346 21.3544 21.5703 21.3126 21.7129C21.2764 21.8365 21.1993 21.8944 21.0695 21.8944H21.0484C20.9583 21.8944 20.8305 21.8781 20.6683 21.8463C20.3806 21.7902 20.0581 21.7385 19.6477 21.7385C19.408 21.7385 19.1602 21.7591 18.9109 21.8003C18.4012 21.8855 17.9684 22.1908 17.5101 22.5149C16.8443 22.9859 16.157 23.4718 15.0856 23.4718C15.0389 23.4718 14.9934 23.4702 14.9474 23.4682C14.9181 23.4707 14.8876 23.4718 14.8572 23.4718C13.7862 23.4718 13.0989 22.9861 12.4342 22.5158C11.9753 22.1917 11.5421 21.8855 11.0316 21.8003C10.7826 21.7591 10.5347 21.7385 10.2956 21.7385C9.86366 21.7385 9.52354 21.8051 9.27475 21.8536C9.12392 21.8832 8.99345 21.9086 8.89435 21.9086C8.79089 21.9086 8.67897 21.8861 8.63022 21.7197C8.58788 21.5753 8.55743 21.4359 8.52768 21.3004C8.45169 20.953 8.3979 20.7392 8.25233 20.7168C6.5538 20.4545 6.06743 20.0965 5.95917 19.8427C5.94406 19.8065 5.93491 19.7699 5.93307 19.7342C5.92758 19.6365 5.99648 19.5502 6.09306 19.5346C8.70392 19.1048 9.87488 16.4358 9.92363 16.3225C9.92477 16.3197 9.92615 16.3165 9.92775 16.3136C10.0875 15.9897 10.1186 15.7084 10.0211 15.4779C9.84192 15.0558 9.25735 14.8702 8.87054 14.7475C8.77602 14.7173 8.68629 14.6892 8.61534 14.661C7.84332 14.3559 7.77924 14.0428 7.80968 13.8833C7.8614 13.6111 8.22487 13.4214 8.51898 13.4214C8.59932 13.4214 8.67027 13.4358 8.73001 13.4637C9.07745 13.6263 9.39034 13.7089 9.66064 13.7089C10.0337 13.7089 10.1967 13.5521 10.2166 13.5315C10.2068 13.3548 10.1951 13.1701 10.1832 12.9794C10.1054 11.7453 10.0088 10.2111 10.3997 9.33563C11.5702 6.71127 14.0522 6.50711 14.7853 6.50711C14.8041 6.50711 15.1067 6.50391 15.1067 6.50391H15.1499C15.8844 6.50391 18.3723 6.70807 19.5433 9.33403C19.934 10.21 19.8374 11.7453 19.7596 12.9787L19.7562 13.0325C19.7454 13.2042 19.7349 13.371 19.7262 13.531C19.7449 13.5503 19.8949 13.6942 20.2329 13.7073H20.2332C20.4906 13.6974 20.7859 13.6153 21.1102 13.4637C21.205 13.4191 21.3107 13.4097 21.3824 13.4097C21.4925 13.4097 21.6035 13.4312 21.6957 13.4695L21.7017 13.472C21.9637 13.5649 22.1356 13.7485 22.1393 13.9407C22.1427 14.1216 22.0045 14.3935 21.3274 14.661C21.2572 14.6887 21.1674 14.7171 21.0722 14.7473C20.685 14.87 20.1009 15.0558 19.9216 15.4777C19.8239 15.7084 19.855 15.9892 20.015 16.3131C20.0164 16.3163 20.018 16.3193 20.0194 16.3225C20.0679 16.4358 21.2375 19.1039 23.8499 19.5344C23.9463 19.5502 24.0154 19.6365 24.0099 19.7337C24.0079 19.7704 23.9989 19.8072 23.9834 19.8431Z" fill="#E5E5E5"/>
</svg>
